<svg width="797" height="946" viewBox="0 0 797 946" fill="none" xmlns="http://www.w3.org/2000/svg">
<g clip-path="url(#clip0_1_8)">
<path d="M296.328 1.15234C297.435 0.448183 298.875 0.257275 301.327 0.862305C303.789 1.46992 307.18 2.85708 312.112 5.19629C317.037 7.53196 323.463 10.7999 331.984 15.1484C348.626 23.6359 390.422 41.8859 424.873 55.708C468.095 73.0472 504.828 89.6004 531.704 103.61C545.143 110.616 556.11 116.981 564.188 122.486C568.226 125.239 571.536 127.771 574.068 130.057C576.607 132.348 578.339 134.367 579.254 136.087C584.33 145.637 586.23 152.474 584.008 160.779C581.767 169.154 575.324 179.07 563.468 194.707C557.34 202.789 552.094 210.474 548.579 216.347C546.823 219.281 545.49 221.776 544.696 223.649C544.301 224.583 544.029 225.386 543.912 226.022C543.854 226.34 543.829 226.641 543.858 226.906C543.887 227.17 543.975 227.444 544.183 227.654V227.655C544.366 227.841 544.624 227.96 544.884 228.046C545.154 228.135 545.483 228.206 545.857 228.261C546.607 228.371 547.594 228.429 548.779 228.441C551.154 228.467 554.383 228.311 558.228 227.993C565.921 227.358 576.122 226.076 586.976 224.303C612.062 220.207 628.842 218.165 639.344 218.163C644.603 218.162 648.224 218.675 650.514 219.656C651.651 220.144 652.434 220.735 652.933 221.412C653.427 222.083 653.668 222.872 653.668 223.803C653.668 223.926 653.618 224.156 653.466 224.518C653.319 224.868 653.095 225.301 652.791 225.814C652.183 226.842 651.28 228.156 650.106 229.727C647.761 232.865 644.363 236.99 640.162 241.812C631.762 251.452 620.171 263.857 607.418 276.697C594.656 289.547 583.054 301.636 574.641 310.764C570.435 315.326 567.022 319.152 564.659 321.965C563.479 323.37 562.554 324.529 561.923 325.403C561.608 325.84 561.36 326.215 561.188 326.52C561.102 326.671 561.029 326.814 560.978 326.945C560.929 327.067 560.882 327.22 560.882 327.376C560.882 327.512 560.916 327.658 560.953 327.784C560.993 327.921 561.051 328.079 561.121 328.256C561.262 328.61 561.469 329.063 561.734 329.606C562.265 330.695 563.044 332.173 564.043 333.992C566.041 337.631 568.929 342.656 572.49 348.697C579.613 360.782 589.437 376.951 600.242 394.29C695.491 547.133 757.486 717.493 792.518 922.726L796.407 945.5H699.478L679.288 904.206L678.754 903.124C667.346 880.245 644.249 847.303 626.9 829.269C612.271 814.063 603.775 805.763 596.487 801.708C589.586 797.868 583.775 797.835 575.036 799.223L573.248 799.519C508.681 810.581 442.262 853.997 403.751 910.303L379.677 945.5H333.9C322.746 945.5 314.311 945.473 307.977 945.221C301.629 944.968 297.447 944.489 294.77 943.61C293.438 943.173 292.514 942.647 291.884 942.03C291.262 941.421 290.9 940.697 290.734 939.812C290.566 938.913 290.599 937.844 290.782 936.557C290.966 935.27 291.294 933.798 291.699 932.101C295.473 916.28 299.926 886.857 303.016 860.98C304.561 848.039 305.766 835.973 306.375 826.928C306.679 822.407 306.835 818.631 306.809 815.875C306.796 814.499 306.737 813.362 306.626 812.51C306.57 812.084 306.5 811.715 306.41 811.416C306.325 811.133 306.205 810.848 306.011 810.652C305.776 810.415 305.443 810.308 305.117 810.258C304.78 810.206 304.374 810.205 303.918 810.241C303.004 810.314 301.805 810.543 300.368 810.907C297.489 811.637 293.578 812.928 288.922 814.668C279.606 818.149 267.262 823.448 254.136 829.725C217.626 847.182 195.62 863.568 160.855 899.145C139.233 921.271 127.575 932.844 118.017 938.905C108.523 944.925 101.113 945.5 87.876 945.5H60.5361L64.2061 904.003C66.253 880.886 70.7495 840.956 74.2002 815.272C77.5987 789.994 80.1765 771.394 81.7832 757.508C83.389 743.63 84.0303 734.416 83.541 727.921C83.0499 721.401 81.4148 717.565 78.4355 714.492C76.9595 712.97 75.1688 711.649 73.0664 710.285C71.4959 709.266 69.7252 708.206 67.7725 707.017L65.7588 705.78L64.3438 704.885C49.7383 695.466 35.6796 680.918 24.5986 664.756C13.1588 648.07 4.92259 629.707 2.51855 613.553C-0.51468 593.194 -0.201666 575.853 3.9502 559.501C8.10208 543.149 16.1013 527.754 28.4844 511.298C41.407 494.12 49.0576 484.648 55.8262 479.438C62.5346 474.274 68.3798 473.296 77.8027 473.235C83.2686 473.2 86.7536 474.328 88.5596 476.128C90.3174 477.88 90.5995 480.397 89.3281 483.503C88.052 486.62 85.2355 490.238 80.9678 493.999C76.7071 497.753 71.0284 501.625 64.0703 505.259L64.0322 505.279L63.9971 505.306C38.4995 524.893 26.2042 545.087 23.9414 570.286C21.8391 593.703 30.2421 616.805 44.2686 635.532C58.5771 654.637 78.0494 674.73 93.252 682.764H93.2529C97.4038 684.955 100.679 686.595 103.488 687.59C106.306 688.588 108.692 688.951 111.059 688.561C113.42 688.171 115.708 687.039 118.35 685.147C120.658 683.494 123.263 681.241 126.445 678.354L127.845 677.077C136.829 668.858 172.01 637.562 206.032 607.536C240.053 577.511 276.861 544.766 287.832 534.77L287.831 534.769C293.301 529.786 298.939 525.26 303.611 521.982C305.948 520.343 308.036 519.022 309.735 518.112C310.585 517.658 311.329 517.31 311.954 517.077C312.588 516.841 313.062 516.738 313.382 516.738C313.45 516.738 313.566 516.766 313.739 516.889C313.912 517.011 314.115 517.21 314.343 517.5C314.799 518.081 315.308 518.964 315.854 520.136C316.946 522.475 318.152 525.878 319.395 530.102C321.879 538.544 324.493 550.202 326.634 563.033C328.779 575.888 331.119 587.579 333.164 596.062C334.186 600.301 335.136 603.749 335.954 606.144C336.362 607.337 336.744 608.288 337.092 608.947C337.265 609.275 337.442 609.555 337.624 609.759C337.789 609.943 338.047 610.168 338.391 610.168C338.79 610.168 339.032 609.866 339.156 609.654C339.295 609.418 339.405 609.103 339.497 608.743C339.684 608.015 339.833 606.969 339.948 605.656C340.18 603.024 340.287 599.231 340.272 594.569C340.243 585.241 339.726 572.383 338.729 558.248C336.109 521.112 330.011 494.86 316.811 463.962C308.217 443.844 303.18 432.9 296.638 425.605C290.071 418.285 282.014 414.666 267.541 409.074C250.622 402.539 220.393 392.861 200.366 387.575C178.002 381.665 165.198 377.05 157.358 369.554C149.548 362.085 146.6 351.686 144.209 333.936L140.487 306.314L186.167 281.075C211.456 267.097 240.203 248.853 250.054 240.516C252.464 238.475 257.027 235.595 263.241 232.132C269.445 228.675 277.263 224.652 286.161 220.326C303.957 211.675 326.056 201.815 348.16 192.838H348.161C370.277 183.852 390.868 175.243 406.227 168.61C413.905 165.294 420.279 162.472 424.882 160.342C427.183 159.277 429.046 158.383 430.409 157.688C431.09 157.34 431.651 157.04 432.082 156.79C432.396 156.608 432.66 156.442 432.854 156.297L433.022 156.158C433.323 155.885 433.4 155.507 433.369 155.147C433.339 154.797 433.204 154.409 433.007 154.001C432.61 153.18 431.891 152.141 430.906 150.922C428.93 148.476 425.803 145.212 421.78 141.367C413.73 133.672 402.042 123.604 388.657 113.019C363.741 93.3158 338.292 68.7372 319.85 47.8301C310.627 37.3752 303.168 27.8514 298.404 20.3232C296.021 16.5567 294.325 13.3095 293.416 10.708C292.962 9.40756 292.71 8.2871 292.66 7.35547C292.61 6.42304 292.764 5.7135 293.08 5.19824C294.291 3.2253 295.174 1.88693 296.328 1.15234ZM199.396 100.477C200.055 100.38 200.949 100.532 202.158 101.03C204.577 102.026 208.024 104.306 212.912 108.08C217.179 111.374 222.513 115.781 229.175 121.412L232.112 123.9C248.069 137.452 276.445 155.44 295.194 163.899L328.175 178.779L306.22 188.229C289.189 195.561 278.575 198.625 268.771 196.334C258.955 194.039 249.843 186.35 235.909 171.774C222.351 157.594 212.597 145.667 206.234 135.352C199.871 125.034 196.923 116.365 196.923 108.689C196.923 106.937 196.982 105.446 197.145 104.228C197.308 103.001 197.57 102.096 197.946 101.48C198.307 100.89 198.77 100.568 199.396 100.477Z" stroke="#C4C4C4"/>
</g>
<ellipse cx="409" cy="548.75" rx="295" ry="285.669" fill="#4283F1"/>
<path d="M114 241H704V946H114V241Z" fill="#424BF1" fill-opacity="0.68"/>
<ellipse cx="409" cy="409.669" rx="295" ry="285.669" fill="#4283F1" fill-opacity="0.74"/>
<defs>
<clipPath id="clip0_1_8">
<rect width="797" height="946" fill="white"/>
</clipPath>
</defs>
</svg>
