<svg width="120" height="120" viewBox="0 0 120 120" fill="none" xmlns="http://www.w3.org/2000/svg">
<path opacity="0.8" d="M99.0178 24.9903C97.839 23.8115 96.6602 22.6328 95.4815 21.454C91.9451 17.6819 88.173 13.9098 83.4579 11.5522C78.0355 8.72314 72.1416 9.43039 66.2477 9.43039C57.2889 9.43039 34.8921 9.43039 21.6897 9.43039L30.6484 21.454C46.9156 21.454 72.3773 21.454 84.1651 21.454C89.116 21.454 93.3597 22.397 97.3675 24.9903C98.0748 25.2261 98.7821 25.2261 99.0178 24.9903Z" fill="white"/>
<path opacity="0.9" d="M108.92 44.3228C107.741 43.144 106.562 41.9653 105.383 40.7865C101.847 37.0144 98.0749 33.2423 93.3598 30.8847C87.9374 28.0556 82.0435 28.7629 76.1496 28.7629C68.3696 28.7629 49.7448 28.7629 36.5425 28.7629L45.5012 40.7865C61.5327 40.7865 83.458 40.7865 94.3028 40.7865C99.2537 40.7865 103.497 41.7295 107.505 44.3228C107.977 44.5586 108.448 44.5586 108.92 44.3228Z" fill="white"/>
<path d="M120 63.1827C118.821 62.0039 117.642 60.8252 116.464 59.6464C112.927 55.8743 109.155 52.1021 104.44 49.7446C99.0176 46.9155 93.1237 47.6228 87.2298 47.6228C79.9214 47.6228 63.8899 47.6228 50.9233 47.6228L59.8821 59.6464C75.442 59.6464 95.2455 59.6464 105.147 59.6464C110.098 59.6464 114.342 60.5894 118.35 63.1827C119.057 63.4185 119.528 63.6542 120 63.1827Z" fill="white"/>
<path opacity="0.8" d="M20.7468 95.0096C21.9256 96.1884 23.1044 97.3671 24.2832 98.5459C27.8195 102.318 31.5916 106.09 36.3067 108.448C41.7291 111.277 47.623 110.569 53.517 110.569H98.0749L89.1162 98.5459C72.849 98.5459 47.3873 98.5459 35.5995 98.5459C30.6486 98.5459 26.405 97.6029 22.3971 95.0096C21.6898 94.7738 21.2183 94.7738 20.7468 95.0096Z" fill="white"/>
<path opacity="0.9" d="M10.8452 75.6783C12.024 76.8571 13.2028 78.0358 14.3816 79.2146C17.9179 82.9867 21.69 86.7589 26.4051 89.1164C31.8275 91.9455 37.7214 91.2382 43.6153 91.2382H83.2224L74.2637 79.2146C58.2322 79.2146 36.3069 79.2146 25.4621 79.2146C20.5112 79.2146 16.2676 78.2716 12.2597 75.6783C11.7882 75.4425 11.3167 75.4425 10.8452 75.6783Z" fill="white"/>
<path d="M0 56.5814C1.17878 57.7601 2.35756 58.9389 3.53635 60.1177C7.07269 63.8898 10.8448 67.6619 15.5599 70.0195C20.9823 72.8486 26.8762 72.1413 32.7701 72.1413H69.0766L60.1179 60.1177C44.558 60.1177 24.7544 60.1177 14.8527 60.1177C9.90178 60.1177 5.65815 59.1747 1.65029 56.5814C0.943018 56.3456 0.471513 56.3456 0 56.5814Z" fill="white"/>
</svg>
