<svg xmlns="http://www.w3.org/2000/svg" version="1.1" xmlns:xlink="http://www.w3.org/1999/xlink" width="179" height="211"><svg width="179" height="211" viewBox="0 0 179 211" fill="none" xmlns="http://www.w3.org/2000/svg">
<path fill-rule="evenodd" clip-rule="evenodd" d="M65.7278 1.10113C64.3385 3.34887 76.0166 16.4978 87.2197 25.2957C93.2282 30.0148 97.7086 34.2686 97.1779 34.7478C96.6472 35.2285 88.0852 38.9002 78.1519 42.9081C68.2187 46.9146 58.2896 51.7087 56.0876 53.5606C53.8843 55.4124 47.4367 59.4772 41.7574 62.5946L31.431 68.2612L32.277 74.4974C33.3509 82.4159 34.9361 83.9204 44.9721 86.5544C49.4664 87.7324 56.2516 89.8899 60.0471 91.3458C66.553 93.8422 67.1851 94.5423 71.05 103.528C74.0092 110.407 75.3762 116.25 75.9639 124.522C76.4112 130.824 76.4279 135.983 76 135.983C75.5707 135.983 74.4329 131.294 73.4701 125.563C72.5074 119.833 71.1181 115.144 70.3832 115.144C69.6483 115.144 67.0323 116.967 64.5691 119.195C62.1059 121.424 53.8398 128.727 46.1989 135.424C38.5579 142.121 30.6558 149.102 28.6372 150.936C25.1932 154.067 24.7278 154.144 20.9962 152.188C17.6045 150.408 13.2433 145.943 10.0322 141.685C6.89477 137.525 5.01965 132.399 5.48885 127.209C5.99358 121.627 8.73337 117.149 14.4417 112.794C20.7184 109.539 22.4202 105.409 17.4731 105.441C13.2191 105.468 12.1063 106.32 6.30754 113.975C0.732428 121.333 -0.911068 127.763 0.454579 136.866C1.54098 144.116 7.88992 153.312 14.7098 157.515C19.707 160.595 19.607 159.27 16.5534 181.827C15.7782 187.557 14.7682 196.465 14.3083 201.623L13.4734 211H19.7362C25.6906 211 26.5033 210.489 36.2073 200.627C44.008 192.699 48.9399 189.053 57.1254 185.166C63.0173 182.368 68.202 180.444 68.648 180.89C69.4024 181.645 67.0962 200.83 65.4041 207.874C64.6761 210.903 64.9734 211 74.9914 211H85.3316L90.772 203.101C99.4049 190.566 114.296 180.9 128.766 178.438C133.135 177.695 134.136 178.249 140.716 185.041C144.666 189.119 149.95 196.627 152.462 201.727L157.027 211H168.014H179L178.104 205.79C170.234 160.002 156.306 121.99 134.905 87.8852C130.052 80.1515 126.082 73.4624 126.082 73.0193C126.082 72.5761 130.77 67.5249 136.501 61.7944C142.232 56.0639 146.921 50.7196 146.921 49.918C146.921 48.0912 143.079 48.0926 131.812 49.9194C126.941 50.7099 122.66 51.0614 122.299 50.6988C121.937 50.3376 123.891 47.0966 126.64 43.4957C131.961 36.526 132.486 34.5811 130.195 30.301C128.479 27.0961 114.884 20.0583 95.4649 12.3218C87.7281 9.23913 78.3451 5.17013 74.6121 3.27941C66.9586 -0.599268 66.8017 -0.636778 65.7278 1.10113ZM44.115 24.2426C44.115 27.724 46.8074 32.0597 52.9021 38.3904C59.1551 44.8863 61.1737 45.3545 68.8189 42.0857L73.9841 39.8782L66.3446 36.4552C62.1434 34.5728 55.7792 30.5663 52.2033 27.5503C44.968 21.4503 44.115 21.1016 44.115 24.2426Z" fill="#4283F1"></path>
</svg><style>@media (prefers-color-scheme: light) { :root { filter: none; } }
@media (prefers-color-scheme: dark) { :root { filter: none; } }
</style></svg>